<svg width="312" height="119" viewBox="0 0 312 119" fill="none" xmlns="http://www.w3.org/2000/svg">
<path d="M244.097 66.4199C239.985 66.4199 236.709 65.8318 234.269 64.6556C231.828 63.4795 230.056 61.7865 228.953 59.5767C227.884 57.367 227.349 54.7295 227.349 51.6644C227.349 47.7795 228.101 44.4826 229.605 41.7739C231.143 39.0295 233.232 36.9267 235.873 35.4654C238.548 34.0041 241.573 33.2734 244.95 33.2734C248.961 33.2734 251.903 34.1288 253.775 35.8396C255.647 37.5148 256.583 39.7245 256.583 42.4689C256.583 44.643 256.015 46.532 254.878 48.1359C253.775 49.7397 252.221 50.9694 250.215 51.8247C248.242 52.6801 245.952 53.1078 243.345 53.1078C242.141 53.1078 240.971 53.0187 239.835 52.8405C238.698 52.6623 237.679 52.4306 236.776 52.1455L237.979 49.1516C237.879 50.007 237.829 50.8624 237.829 51.7178C237.829 53.2504 238.347 54.3375 239.383 54.979C240.453 55.6205 241.924 55.9413 243.796 55.9413C245.601 55.9413 247.139 55.7453 248.41 55.3532C249.68 54.9255 250.8 54.5157 251.769 54.1236C252.739 53.6959 253.658 53.4821 254.527 53.4821C255.129 53.4821 255.748 53.6425 256.383 53.9632C257.018 54.284 257.553 54.783 257.987 55.4602C258.422 56.1373 258.639 57.0462 258.639 58.1867C258.639 59.7549 258.088 61.1628 256.984 62.4102C255.881 63.6577 254.243 64.6378 252.07 65.3506C249.931 66.0635 247.273 66.4199 244.097 66.4199ZM241.189 47.7616C242.793 47.7616 244.181 47.3518 245.351 46.532C246.521 45.6766 247.106 44.643 247.106 43.4312C247.106 42.6471 246.838 42.0056 246.304 41.5066C245.769 41.0076 245.033 40.7581 244.097 40.7581C243.061 40.7581 242.075 40.972 241.139 41.3997C240.236 41.8274 239.5 42.3798 238.932 43.057C238.364 43.7342 238.08 44.4826 238.08 45.3024C238.08 46.0865 238.347 46.6924 238.882 47.1201C239.45 47.5478 240.219 47.7616 241.189 47.7616Z" fill="black"/>
<path d="M217.491 66.1004C215.953 66.1004 214.716 65.7975 213.78 65.1916C212.844 64.55 212.109 63.463 211.574 61.9304C211.039 60.4335 210.638 58.3484 210.371 55.6753C210.137 52.9666 210.02 49.7054 210.02 45.8918C210.02 43.6108 210.103 41.2941 210.27 38.9417C210.471 36.5894 210.722 34.4509 211.022 32.5263C211.357 30.566 211.708 29.1047 212.075 28.1424C212.711 26.5386 213.413 25.398 214.182 24.7209C214.95 24.0437 215.903 23.7051 217.04 23.7051C218.243 23.7051 219.246 24.0615 220.049 24.7743C220.851 25.4515 221.436 26.592 221.804 28.1959C222.071 29.372 222.288 30.7799 222.456 32.4194C222.623 34.0589 222.706 35.7875 222.706 37.6052C222.706 39.6367 222.589 41.793 222.355 44.0741C222.121 46.3195 221.804 48.5293 221.402 50.7034C221.035 52.8419 220.583 54.8199 220.049 56.6377L215.485 57.1188C216.455 56.3347 217.525 55.7288 218.695 55.3011C219.898 54.8734 221.018 54.6596 222.054 54.6596C223.425 54.6596 224.478 55.0338 225.214 55.7823C225.982 56.4951 226.367 57.6178 226.367 59.1504C226.367 60.4335 225.982 61.6096 225.214 62.6789C224.445 63.7125 223.392 64.55 222.054 65.1916C220.751 65.7975 219.23 66.1004 217.491 66.1004Z" fill="black"/>
<path d="M202.239 24.9873C204.311 24.9873 205.782 25.5041 206.651 26.5377C207.554 27.5713 208.005 28.7653 208.005 30.1197C208.005 31.7592 207.454 33.0422 206.35 33.9689C205.247 34.8599 203.71 35.3055 201.737 35.3055C199.798 35.3055 198.344 34.8065 197.375 33.8085C196.438 32.8106 195.97 31.6344 195.97 30.28C195.97 28.5336 196.539 27.2149 197.675 26.3239C198.845 25.4328 200.367 24.9873 202.239 24.9873ZM202.79 36.9093C204.428 36.9093 205.699 37.9786 206.601 40.117C207.537 42.2555 208.005 45.6593 208.005 50.3283C208.005 56.0665 207.42 60.2009 206.25 62.7315C205.114 65.262 203.375 66.5273 201.035 66.5273C199.196 66.5273 197.843 65.6006 196.973 63.7472C196.138 61.8582 195.72 58.5792 195.72 53.9102C195.72 48.172 196.372 43.9128 197.675 41.1328C198.979 38.3172 200.684 36.9093 202.79 36.9093Z" fill="black"/>
<path d="M170.637 23.6509C172.509 23.6509 173.796 24.2033 174.498 25.3082C175.233 26.4131 175.601 28.0526 175.601 30.2267C175.601 31.7236 175.501 33.3631 175.3 35.1452C175.133 36.9273 174.866 38.4955 174.498 39.8499H174.197C175.233 38.1391 176.537 36.7491 178.108 35.6798C179.713 34.6106 181.418 34.076 183.223 34.076C185.028 34.076 186.633 34.5571 188.037 35.5194C189.441 36.4461 190.595 37.8896 191.497 39.8499C192.266 41.4537 192.818 43.3783 193.152 45.6238C193.52 47.8692 193.704 49.9898 193.704 51.9857C193.704 55.3004 193.403 57.9378 192.801 59.8981C192.233 61.8584 191.414 63.284 190.344 64.1751C189.308 65.0305 188.087 65.4581 186.683 65.4581C183.173 65.4581 181.418 63.2306 181.418 58.7754C181.418 57.1715 181.502 55.532 181.669 53.8569C181.869 52.1818 181.97 50.6492 181.97 49.2592C181.97 47.7979 181.736 46.7108 181.268 45.998C180.8 45.2495 180.148 44.8753 179.312 44.8753C178.309 44.8753 177.49 45.3921 176.855 46.4257C176.253 47.4593 175.952 48.8849 175.952 50.7026C175.952 51.9144 176.019 53.1441 176.153 54.3915C176.32 55.6033 176.403 57.0646 176.403 58.7754C176.403 61.5198 175.852 63.4979 174.749 64.7097C173.679 65.8858 172.308 66.4739 170.637 66.4739C169.534 66.4739 168.531 66.2957 167.628 65.9393C166.759 65.5829 166.023 64.8701 165.422 63.8008C164.82 62.6959 164.352 61.0743 164.018 58.9358C163.817 57.6527 163.633 56.1558 163.466 54.445C163.332 52.7342 163.199 50.9521 163.065 49.0988C162.965 47.2098 162.881 45.3921 162.814 43.6457C162.747 41.8636 162.714 40.2954 162.714 38.941C162.714 33.6304 163.382 29.7634 164.72 27.3398C166.09 24.8805 168.063 23.6509 170.637 23.6509Z" fill="black"/>
<path d="M136.643 32.8462C138.013 32.8462 139.116 33.4521 139.952 34.6639C140.821 35.8401 141.457 37.7112 141.858 40.2774L140.805 40.8655C141.406 38.3706 142.526 36.4638 144.164 35.1451C145.802 33.8263 147.741 33.167 149.981 33.167C152.121 33.167 154.01 33.7372 155.648 34.8777C157.286 36.0183 158.573 37.7469 159.509 40.0636C160.478 42.3446 160.963 45.2137 160.963 48.6709C160.963 54.2666 159.977 58.401 158.004 61.0741C156.065 63.7116 153.441 65.0303 150.132 65.0303C147.892 65.0303 146.12 64.4957 144.816 63.4264C143.546 62.3572 142.66 61.0563 142.159 59.5237L142.76 59.2029C143.028 61.1989 143.245 63.177 143.412 65.1372C143.613 67.0619 143.713 68.7548 143.713 70.2161C143.713 72.0338 143.278 73.5664 142.409 74.8138C141.54 76.0969 140.169 76.7385 138.297 76.7385C136.559 76.7385 135.222 76.1326 134.286 74.9208C133.383 73.7446 132.765 72.1229 132.43 70.0557C132.23 68.5944 132.029 66.7411 131.829 64.4957C131.628 62.2146 131.461 59.7554 131.327 57.1179C131.227 54.4805 131.177 51.8787 131.177 49.3125C131.177 46.7819 131.26 44.4118 131.427 42.202C131.628 39.9566 131.862 38.1389 132.13 36.7489C132.43 35.4302 132.965 34.45 133.734 33.8085C134.536 33.167 135.506 32.8462 136.643 32.8462ZM146.07 42.1486C144.833 42.1486 143.83 42.8079 143.061 44.1267C142.326 45.4454 141.958 47.1562 141.958 49.259C141.958 51.4331 142.326 53.0548 143.061 54.1241C143.797 55.1933 144.766 55.7279 145.97 55.7279C147.441 55.7279 148.477 55.122 149.079 53.9102C149.714 52.6984 150.031 51.1302 150.031 49.2056C150.031 46.7819 149.63 44.9999 148.828 43.8594C148.059 42.7188 147.14 42.1486 146.07 42.1486Z" fill="black"/>
<path d="M113.499 66.1531C110.491 66.1531 107.866 65.5293 105.626 64.2819C103.42 62.9988 101.698 61.1811 100.461 58.8288C99.258 56.4764 98.6562 53.6786 98.6562 50.4352C98.6562 47.0493 99.2747 44.0911 100.512 41.5606C101.749 39.03 103.487 37.0519 105.727 35.6263C108 34.2006 110.641 33.4878 113.65 33.4878C116.859 33.4878 119.634 34.1828 121.974 35.5728C124.347 36.9272 126.186 38.834 127.49 41.2932C128.793 43.7525 129.445 46.6216 129.445 49.9006C129.445 53.2509 128.777 56.1379 127.44 58.5615C126.136 60.9851 124.297 62.8562 121.924 64.175C119.55 65.4937 116.742 66.1531 113.499 66.1531ZM114.201 55.1399C115.505 55.1399 116.541 54.6053 117.31 53.536C118.113 52.4668 118.514 51.0411 118.514 49.2591C118.514 47.477 118.113 46.0514 117.31 44.9821C116.541 43.9129 115.505 43.3783 114.201 43.3783C112.864 43.3783 111.794 43.9129 110.992 44.9821C110.223 46.0514 109.839 47.477 109.839 49.2591C109.839 51.0411 110.223 52.4668 110.992 53.536C111.794 54.6053 112.864 55.1399 114.201 55.1399Z" fill="black"/>
<path d="M77.0509 66.7422C73.9084 66.7422 71.4346 65.4413 69.6294 62.8395C67.8576 60.202 66.9717 56.1924 66.9717 50.8106C66.9717 45.4644 67.8241 41.5616 69.5291 39.1024C71.234 36.6075 73.6577 35.36 76.8001 35.36C78.7725 35.36 80.4942 35.7877 81.9651 36.6431C83.436 37.4985 84.7732 38.7103 85.9767 40.2785L85.1744 40.4924C84.9738 39.2093 84.7732 37.8549 84.5726 36.4293C84.4055 34.968 84.2718 33.5958 84.1715 32.3127C84.0712 31.0296 84.021 30.0139 84.021 29.2654C84.021 27.5546 84.3888 26.2359 85.1242 25.3092C85.8597 24.3469 86.9963 23.8657 88.5341 23.8657C90.239 23.8657 91.6431 24.4894 92.7463 25.7369C93.8495 26.9487 94.6685 28.802 95.2034 31.2969C95.5377 32.7939 95.8219 34.7007 96.0559 37.0174C96.3233 39.2984 96.5239 41.7042 96.6576 44.2347C96.8248 46.7296 96.9083 49.082 96.9083 51.2917C96.9083 55.2479 96.6242 58.3309 96.0559 60.5406C95.521 62.7504 94.7521 64.3008 93.7492 65.1918C92.7797 66.0829 91.6431 66.5284 90.3393 66.5284C88.8015 66.5284 87.7318 65.9759 87.13 64.8711C86.5617 63.7662 86.2441 61.9663 86.1773 59.4714H87.1802C86.2776 61.6812 84.9571 63.4454 83.2187 64.7641C81.4803 66.0829 79.4244 66.7422 77.0509 66.7422ZM82.1155 57.226C82.7841 57.226 83.4026 56.9943 83.9709 56.531C84.5392 56.0677 84.9905 55.3548 85.3248 54.3925C85.6591 53.4302 85.8263 52.2006 85.8263 50.7036C85.8263 48.779 85.5254 47.2108 84.9236 45.999C84.3553 44.7872 83.3859 44.1813 82.0152 44.1813C80.8786 44.1813 79.9593 44.7159 79.2572 45.7851C78.5886 46.8544 78.2543 48.4761 78.2543 50.6502C78.2543 52.5748 78.6054 54.1608 79.3074 55.4083C80.0094 56.6201 80.9455 57.226 82.1155 57.226Z" fill="black"/>
<path d="M49.5432 66.1531C46.5345 66.1531 43.9102 65.5293 41.6704 64.2819C39.464 62.9988 37.7423 61.1811 36.5054 58.8288C35.3019 56.4764 34.7002 53.6786 34.7002 50.4352C34.7002 47.0493 35.3187 44.0911 36.5556 41.5606C37.7925 39.03 39.5308 37.0519 41.7707 35.6263C44.0439 34.2006 46.6849 33.4878 49.6936 33.4878C52.9029 33.4878 55.6776 34.1828 58.0177 35.5728C60.3912 36.9272 62.2299 38.834 63.5337 41.2932C64.8374 43.7525 65.4893 46.6216 65.4893 49.9006C65.4893 53.2509 64.8207 56.1379 63.4835 58.5615C62.1797 60.9851 60.3411 62.8562 57.9675 64.175C55.594 65.4937 52.7859 66.1531 49.5432 66.1531ZM50.2452 55.1399C51.549 55.1399 52.5853 54.6053 53.3542 53.536C54.1565 52.4668 54.5577 51.0411 54.5577 49.2591C54.5577 47.477 54.1565 46.0514 53.3542 44.9821C52.5853 43.9129 51.549 43.3783 50.2452 43.3783C48.908 43.3783 47.8382 43.9129 47.0359 44.9821C46.267 46.0514 45.8826 47.477 45.8826 49.2591C45.8826 51.0411 46.267 52.4668 47.0359 53.536C47.8382 54.6053 48.908 55.1399 50.2452 55.1399Z" fill="black"/>
<path d="M8.60165 26.6987C10.3734 26.6987 11.7274 27.2155 12.6634 28.2491C13.6329 29.2471 14.1176 30.744 14.1176 32.7399C14.1176 34.2012 13.9003 35.8763 13.4657 37.7653C13.0646 39.6187 12.4795 41.3829 11.7106 43.0581L10.1561 42.3631C12.1954 41.7572 14.2848 41.472 16.4243 41.5077C18.5972 41.5433 20.5529 41.8997 22.2913 42.5769L20.6365 42.6838C20.1685 40.9018 19.8174 39.1197 19.5834 37.3376C19.3494 35.5556 19.2324 33.9874 19.2324 32.633C19.2324 30.5658 19.7339 29.0154 20.7368 27.9818C21.7397 26.9126 23.2106 26.3779 25.1495 26.3779C27.0216 26.3779 28.4591 26.8947 29.462 27.9283C30.4984 28.9619 31.2171 30.5123 31.6183 32.5795C31.9526 34.1834 32.2033 36.1615 32.3705 38.5138C32.571 40.8305 32.6713 43.165 32.6713 45.5173C32.6713 47.8696 32.5877 50.2576 32.4206 52.6812C32.2869 55.0692 32.0529 57.3146 31.7186 59.4174C31.3508 61.8054 30.6488 63.5518 29.6125 64.6567C28.5761 65.726 27.0216 66.2606 24.949 66.2606C22.776 66.2606 21.2048 65.6725 20.2353 64.4963C19.2658 63.3202 18.7811 61.4312 18.7811 58.8294C18.7811 57.1899 18.9483 55.4969 19.2826 53.7505C19.6169 51.9684 20.0849 50.2042 20.6866 48.4577L22.4919 49.6874C20.6532 50.2576 18.6808 50.5427 16.5747 50.5427C14.5021 50.5071 12.4795 50.222 10.5072 49.6874L11.3596 48.2973C12.2288 50.0794 12.9141 51.9149 13.4156 53.8039C13.9505 55.6929 14.2179 57.5819 14.2179 59.4709C14.2179 61.8589 13.6162 63.6231 12.4127 64.7636C11.2426 65.8685 9.65469 66.421 7.64889 66.421C6.01081 66.421 4.65689 65.9933 3.58713 65.1379C2.5508 64.2468 1.83205 62.7143 1.43089 60.5401C1.19688 59.1145 1.01301 57.3502 0.879292 55.2474C0.745571 53.1089 0.678711 50.8635 0.678711 48.5112C0.678711 45.6242 0.795716 42.8442 1.02973 40.1711C1.26374 37.4624 1.59804 35.1279 2.03263 33.1676C2.46722 31.1717 3.20268 29.6035 4.23902 28.4629C5.27535 27.2868 6.72956 26.6987 8.60165 26.6987Z" fill="black"/>
<path d="M37.1847 52.816L35.125 55.0119L42.3338 58.3058L45.4248 65.993L47.4845 63.7971L46.4546 58.3058L51.2804 53.1608L56.5389 65.1249L58.4893 63.0454L56.7559 47.3247L60.8752 42.9313C61.1535 42.6448 61.3754 42.3021 61.5281 41.9232C61.6808 41.5442 61.7611 41.1367 61.7645 40.7242C61.7679 40.3118 61.6942 39.9028 61.5477 39.5211C61.4012 39.1394 61.1849 38.7926 60.9113 38.501C60.6378 38.2094 60.3125 37.9788 59.9545 37.8226C59.5965 37.6664 59.2129 37.5878 58.826 37.5914C58.4392 37.595 58.057 37.6807 57.7015 37.8435C57.3461 38.0063 57.0246 38.2429 56.7559 38.5395L52.5273 43.0478L37.7819 41.1982L35.9393 43.1643L47.0737 48.8637L42.3353 53.9155L37.1847 52.816Z" fill="#24BAEC"/>
<path d="M111.125 43.6525C123.087 66.2316 171.247 90.3119 202.792 90.3313C236.895 90.4631 255.104 81.6277 289.677 47.7047C289.776 51.5909 289.62 54.7431 289.824 57.6337C289.959 60.9274 290.125 64.4106 290.779 67.6082C290.933 68.5557 292.379 70.0452 293.188 70.0907C293.997 70.1362 295.079 68.5695 295.184 67.574C296.039 58.0454 296.634 48.5649 297.328 38.8709C297.483 35.7187 296.334 33.5886 293.974 33.0492C285.047 31.5776 276.089 29.9165 267.064 28.6584C265.025 28.4499 262.813 29.6401 260.218 30.1203C263.62 37.885 268.137 36.0732 271.85 37.5336C275.723 39.1595 279.702 39.7898 284.613 41.2236C275.572 53.8287 265.753 62.4782 254.884 68.7841C215.117 92.1503 174.096 86.4661 132.541 58.6257C127.13 54.9418 121.985 50.4278 116.673 46.5304C115.091 45.847 113.639 45.1395 111.125 43.6525Z" fill="#24BAEC"/>
</svg>
