<svg width="397" height="143" viewBox="0 0 397 143" fill="none" xmlns="http://www.w3.org/2000/svg">
<path d="M310.711 79.512C305.463 79.512 301.282 78.808 298.167 77.4C295.052 75.992 292.791 73.9654 291.383 71.32C290.018 68.6747 289.335 65.5174 289.335 61.848C289.335 57.1974 290.295 53.2507 292.215 50.008C294.178 46.7227 296.844 44.2054 300.215 42.456C303.628 40.7067 307.49 39.832 311.799 39.832C316.919 39.832 320.674 40.856 323.063 42.904C325.452 44.9094 326.647 47.5547 326.647 50.84C326.647 53.4427 325.922 55.704 324.471 57.624C323.063 59.544 321.079 61.016 318.519 62.04C316.002 63.064 313.079 63.576 309.751 63.576C308.215 63.576 306.722 63.4694 305.271 63.256C303.82 63.0427 302.519 62.7654 301.367 62.424L302.903 58.84C302.775 59.864 302.711 60.888 302.711 61.912C302.711 63.7467 303.372 65.048 304.695 65.816C306.06 66.584 307.938 66.968 310.327 66.968C312.631 66.968 314.594 66.7334 316.215 66.264C317.836 65.752 319.266 65.2614 320.503 64.792C321.74 64.28 322.914 64.024 324.023 64.024C324.791 64.024 325.58 64.216 326.391 64.6C327.202 64.984 327.884 65.5814 328.439 66.392C328.994 67.2027 329.271 68.2907 329.271 69.656C329.271 71.5334 328.567 73.2187 327.159 74.712C325.751 76.2054 323.66 77.3787 320.887 78.232C318.156 79.0854 314.764 79.512 310.711 79.512ZM306.999 57.176C309.047 57.176 310.818 56.6854 312.311 55.704C313.804 54.68 314.551 53.4427 314.551 51.992C314.551 51.0534 314.21 50.2854 313.527 49.688C312.844 49.0907 311.906 48.792 310.711 48.792C309.388 48.792 308.13 49.048 306.935 49.56C305.783 50.072 304.844 50.7334 304.119 51.544C303.394 52.3547 303.031 53.2507 303.031 54.232C303.031 55.1707 303.372 55.896 304.055 56.408C304.78 56.92 305.762 57.176 306.999 57.176Z" fill="white"/>
<path d="M276.753 79.128C274.79 79.128 273.211 78.7653 272.017 78.04C270.822 77.272 269.883 75.9706 269.201 74.136C268.518 72.344 268.006 69.848 267.665 66.648C267.366 63.4053 267.217 59.5013 267.217 54.936C267.217 52.2053 267.323 49.432 267.537 46.616C267.793 43.8 268.113 41.24 268.497 38.936C268.923 36.5893 269.371 34.84 269.841 33.688C270.651 31.768 271.547 30.4026 272.529 29.592C273.51 28.7813 274.726 28.376 276.177 28.376C277.713 28.376 278.993 28.8026 280.017 29.656C281.041 30.4666 281.787 31.832 282.257 33.752C282.598 35.16 282.875 36.8453 283.089 38.808C283.302 40.7706 283.409 42.84 283.409 45.016C283.409 47.448 283.259 50.0293 282.961 52.76C282.662 55.448 282.257 58.0933 281.745 60.696C281.275 63.256 280.699 65.624 280.017 67.8L274.193 68.376C275.43 67.4373 276.795 66.712 278.289 66.2C279.825 65.688 281.254 65.432 282.577 65.432C284.326 65.432 285.67 65.88 286.609 66.776C287.59 67.6293 288.081 68.9733 288.081 70.808C288.081 72.344 287.59 73.752 286.609 75.032C285.627 76.2693 284.283 77.272 282.577 78.04C280.913 78.7653 278.971 79.128 276.753 79.128Z" fill="white"/>
<path d="M257.287 29.912C259.932 29.912 261.809 30.5307 262.919 31.768C264.071 33.0053 264.647 34.4347 264.647 36.056C264.647 38.0187 263.943 39.5547 262.535 40.664C261.127 41.7307 259.164 42.264 256.647 42.264C254.172 42.264 252.316 41.6667 251.079 40.472C249.884 39.2773 249.287 37.8693 249.287 36.248C249.287 34.1573 250.012 32.5787 251.463 31.512C252.956 30.4453 254.897 29.912 257.287 29.912ZM257.991 44.184C260.081 44.184 261.703 45.464 262.855 48.024C264.049 50.584 264.647 54.6587 264.647 60.248C264.647 67.1173 263.9 72.0667 262.407 75.096C260.956 78.1253 258.737 79.64 255.751 79.64C253.404 79.64 251.676 78.5307 250.567 76.312C249.5 74.0507 248.967 70.1253 248.967 64.536C248.967 57.6667 249.799 52.568 251.463 49.24C253.127 45.8693 255.303 44.184 257.991 44.184Z" fill="white"/>
<path d="M216.954 28.312C219.343 28.312 220.986 28.9733 221.882 30.296C222.82 31.6187 223.29 33.5813 223.29 36.184C223.29 37.976 223.162 39.9387 222.906 42.072C222.692 44.2053 222.351 46.0827 221.882 47.704H221.498C222.82 45.656 224.484 43.992 226.49 42.712C228.538 41.432 230.714 40.792 233.018 40.792C235.322 40.792 237.37 41.368 239.162 42.52C240.954 43.6293 242.426 45.3573 243.578 47.704C244.559 49.624 245.263 51.928 245.69 54.616C246.159 57.304 246.394 59.8427 246.394 62.232C246.394 66.2 246.01 69.3573 245.242 71.704C244.516 74.0507 243.471 75.7574 242.106 76.824C240.783 77.848 239.226 78.36 237.434 78.36C232.954 78.36 230.714 75.6933 230.714 70.36C230.714 68.44 230.82 66.4773 231.034 64.472C231.29 62.4667 231.418 60.632 231.418 58.968C231.418 57.2187 231.119 55.9173 230.522 55.064C229.924 54.168 229.092 53.72 228.026 53.72C226.746 53.72 225.7 54.3387 224.89 55.576C224.122 56.8133 223.738 58.52 223.738 60.696C223.738 62.1467 223.823 63.6187 223.994 65.112C224.207 66.5627 224.314 68.312 224.314 70.36C224.314 73.6453 223.61 76.0133 222.202 77.464C220.836 78.872 219.087 79.576 216.954 79.576C215.546 79.576 214.266 79.3627 213.114 78.936C212.004 78.5093 211.066 77.656 210.298 76.376C209.53 75.0533 208.932 73.112 208.506 70.552C208.25 69.016 208.015 67.224 207.802 65.176C207.631 63.128 207.46 60.9947 207.29 58.776C207.162 56.5147 207.055 54.3387 206.97 52.248C206.884 50.1147 206.842 48.2373 206.842 46.616C206.842 40.2587 207.695 35.6293 209.402 32.728C211.151 29.784 213.668 28.312 216.954 28.312Z" fill="white"/>
<path d="M173.568 39.3201C175.317 39.3201 176.725 40.0454 177.792 41.4961C178.901 42.9041 179.712 45.1441 180.224 48.2161L178.88 48.9201C179.648 45.9334 181.077 43.6507 183.168 42.0721C185.258 40.4934 187.733 39.7041 190.592 39.7041C193.322 39.7041 195.733 40.3867 197.824 41.7521C199.914 43.1174 201.557 45.1867 202.752 47.9601C203.989 50.6907 204.608 54.1254 204.608 58.2641C204.608 64.9627 203.349 69.9121 200.832 73.1121C198.357 76.2694 195.008 77.8481 190.784 77.8481C187.925 77.8481 185.664 77.2081 184 75.9281C182.378 74.6481 181.248 73.0907 180.608 71.2561L181.376 70.8721C181.717 73.2614 181.994 75.6294 182.208 77.9761C182.464 80.2801 182.592 82.3067 182.592 84.0561C182.592 86.2321 182.037 88.0667 180.928 89.5601C179.818 91.0961 178.069 91.8641 175.68 91.8641C173.461 91.8641 171.754 91.1387 170.56 89.6881C169.408 88.2801 168.618 86.3387 168.192 83.8641C167.936 82.1147 167.68 79.8961 167.424 77.2081C167.168 74.4774 166.954 71.5334 166.784 68.3761C166.656 65.2187 166.592 62.1041 166.592 59.0321C166.592 56.0027 166.698 53.1654 166.912 50.5201C167.168 47.8321 167.466 45.6561 167.808 43.9921C168.192 42.4134 168.874 41.2401 169.856 40.4721C170.88 39.7041 172.117 39.3201 173.568 39.3201ZM185.6 50.4561C184.021 50.4561 182.741 51.2454 181.76 52.8241C180.821 54.4027 180.352 56.4507 180.352 58.9681C180.352 61.5707 180.821 63.5121 181.76 64.7921C182.698 66.0721 183.936 66.7121 185.472 66.7121C187.349 66.7121 188.672 65.9867 189.44 64.5361C190.25 63.0854 190.656 61.2081 190.656 58.9041C190.656 56.0027 190.144 53.8694 189.12 52.5041C188.138 51.1387 186.965 50.4561 185.6 50.4561Z" fill="white"/>
<path d="M144.029 79.192C140.189 79.192 136.84 78.4453 133.981 76.952C131.165 75.416 128.968 73.24 127.389 70.424C125.853 67.608 125.085 64.2587 125.085 60.376C125.085 56.3227 125.874 52.7813 127.453 49.752C129.032 46.7227 131.25 44.3547 134.109 42.648C137.01 40.9413 140.381 40.088 144.221 40.088C148.317 40.088 151.858 40.92 154.845 42.584C157.874 44.2053 160.221 46.488 161.885 49.432C163.549 52.376 164.381 55.8107 164.381 59.736C164.381 63.7467 163.528 67.2027 161.821 70.104C160.157 73.0053 157.81 75.2453 154.781 76.824C151.752 78.4027 148.168 79.192 144.029 79.192ZM144.925 66.008C146.589 66.008 147.912 65.368 148.893 64.088C149.917 62.808 150.429 61.1013 150.429 58.968C150.429 56.8347 149.917 55.128 148.893 53.848C147.912 52.568 146.589 51.928 144.925 51.928C143.218 51.928 141.853 52.568 140.829 53.848C139.848 55.128 139.357 56.8347 139.357 58.968C139.357 61.1013 139.848 62.808 140.829 64.088C141.853 65.368 143.218 66.008 144.925 66.008Z" fill="white"/>
<path d="M97.5115 79.896C93.5008 79.896 90.3435 78.3387 88.0395 75.224C85.7781 72.0667 84.6475 67.2667 84.6475 60.824C84.6475 54.424 85.7355 49.752 87.9115 46.808C90.0875 43.8213 93.1808 42.328 97.1915 42.328C99.7088 42.328 101.906 42.84 103.783 43.864C105.661 44.888 107.367 46.3387 108.903 48.216L107.879 48.472C107.623 46.936 107.367 45.3147 107.111 43.608C106.898 41.8587 106.727 40.216 106.599 38.68C106.471 37.144 106.407 35.928 106.407 35.032C106.407 32.984 106.877 31.4053 107.815 30.296C108.754 29.144 110.205 28.568 112.167 28.568C114.343 28.568 116.135 29.3147 117.543 30.808C118.951 32.2587 119.997 34.4773 120.679 37.464C121.106 39.256 121.469 41.5387 121.767 44.312C122.109 47.0427 122.365 49.9227 122.535 52.952C122.749 55.9387 122.855 58.7547 122.855 61.4C122.855 66.136 122.493 69.8267 121.767 72.472C121.085 75.1173 120.103 76.9733 118.823 78.04C117.586 79.1067 116.135 79.64 114.471 79.64C112.509 79.64 111.143 78.9787 110.375 77.656C109.65 76.3333 109.245 74.1787 109.159 71.192H110.439C109.287 73.8373 107.602 75.9493 105.383 77.528C103.165 79.1067 100.541 79.896 97.5115 79.896ZM103.975 68.504C104.829 68.504 105.618 68.2267 106.343 67.672C107.069 67.1173 107.645 66.264 108.071 65.112C108.498 63.96 108.711 62.488 108.711 60.696C108.711 58.392 108.327 56.5147 107.559 55.064C106.834 53.6133 105.597 52.888 103.847 52.888C102.397 52.888 101.223 53.528 100.327 54.808C99.4741 56.088 99.0475 58.0293 99.0475 60.632C99.0475 62.936 99.4955 64.8347 100.391 66.328C101.287 67.7787 102.482 68.504 103.975 68.504Z" fill="white"/>
<path d="M62.404 79.192C58.564 79.192 55.2146 78.4453 52.356 76.952C49.54 75.416 47.3426 73.24 45.764 70.424C44.228 67.608 43.46 64.2587 43.46 60.376C43.46 56.3227 44.2493 52.7813 45.828 49.752C47.4066 46.7227 49.6253 44.3547 52.484 42.648C55.3853 40.9413 58.756 40.088 62.596 40.088C66.692 40.088 70.2333 40.92 73.22 42.584C76.2493 44.2053 78.596 46.488 80.26 49.432C81.924 52.376 82.756 55.8107 82.756 59.736C82.756 63.7467 81.9026 67.2027 80.196 70.104C78.532 73.0053 76.1853 75.2453 73.156 76.824C70.1266 78.4027 66.5426 79.192 62.404 79.192ZM63.3 66.008C64.964 66.008 66.2866 65.368 67.268 64.088C68.292 62.808 68.804 61.1013 68.804 58.968C68.804 56.8347 68.292 55.128 67.268 53.848C66.2866 52.568 64.964 51.928 63.3 51.928C61.5933 51.928 60.228 52.568 59.204 53.848C58.2226 55.128 57.732 56.8347 57.732 58.968C57.732 61.1013 58.2226 62.808 59.204 64.088C60.228 65.368 61.5933 66.008 63.3 66.008Z" fill="white"/>
<path d="M10.1491 31.9601C12.4104 31.9601 14.1384 32.5787 15.3331 33.8161C16.5704 35.0107 17.1891 36.8027 17.1891 39.1921C17.1891 40.9414 16.9118 42.9467 16.3571 45.2081C15.8451 47.4267 15.0984 49.5387 14.1171 51.5441L12.1331 50.7121C14.7358 49.9867 17.4024 49.6454 20.1331 49.688C22.9064 49.7307 25.4024 50.1574 27.6211 50.9681L25.5091 51.0961C24.9118 48.9627 24.4638 46.8294 24.1651 44.6961C23.8664 42.5627 23.7171 40.6854 23.7171 39.0641C23.7171 36.5894 24.3571 34.7334 25.6371 33.4961C26.9171 32.2161 28.7944 31.576 31.2691 31.576C33.6584 31.576 35.4931 32.1947 36.7731 33.4321C38.0958 34.6694 39.0131 36.5254 39.5251 39.0001C39.9518 40.9201 40.2718 43.2881 40.4851 46.1041C40.7411 48.8774 40.8691 51.6721 40.8691 54.4881C40.8691 57.3041 40.7624 60.1627 40.5491 63.0641C40.3784 65.9227 40.0798 68.6107 39.6531 71.1281C39.1838 73.9867 38.2878 76.0774 36.9651 77.4001C35.6424 78.6801 33.6584 79.3201 31.0131 79.3201C28.2398 79.3201 26.2344 78.6161 24.9971 77.2081C23.7598 75.8001 23.1411 73.5387 23.1411 70.4241C23.1411 68.4614 23.3544 66.4347 23.7811 64.3441C24.2078 62.2107 24.8051 60.0987 25.5731 58.0081L27.8771 59.4801C25.5304 60.1627 23.0131 60.5041 20.3251 60.5041C17.6798 60.4614 15.0984 60.1201 12.5811 59.4801L13.6691 57.8161C14.7784 59.9494 15.6531 62.1467 16.2931 64.4081C16.9758 66.6694 17.3171 68.9307 17.3171 71.1921C17.3171 74.0507 16.5491 76.1627 15.0131 77.5281C13.5198 78.8507 11.4931 79.5121 8.93311 79.5121C6.84244 79.5121 5.11444 79.0001 3.74911 77.9761C2.42644 76.9094 1.50911 75.0747 0.99711 72.4721C0.698443 70.7654 0.463776 68.6534 0.293109 66.1361C0.122443 63.5761 0.0371094 60.8881 0.0371094 58.0721C0.0371094 54.6161 0.186443 51.2881 0.48511 48.0881C0.783776 44.8454 1.21044 42.0507 1.76511 39.7041C2.31978 37.3147 3.25844 35.4374 4.58111 34.0721C5.90378 32.6641 7.75978 31.9601 10.1491 31.9601Z" fill="white"/>
<path d="M46.6287 63.2257L44 65.8544L53.2006 69.7975L57.1456 79L59.7743 76.3713L58.46 69.7975L64.6191 63.6384L71.3304 77.9608L73.8197 75.4715L71.6074 56.652L76.8649 51.3926C77.22 51.0496 77.5033 50.6393 77.6981 50.1857C77.893 49.7321 77.9956 49.2442 77.9999 48.7505C78.0042 48.2568 77.9101 47.7672 77.7231 47.3102C77.5362 46.8533 77.2601 46.4381 76.911 46.089C76.5619 45.7399 76.1467 45.4638 75.6898 45.2769C75.2328 45.0899 74.7432 44.9959 74.2495 45.0001C73.7558 45.0044 73.2679 45.107 72.8143 45.3019C72.3607 45.4967 71.9504 45.78 71.6074 46.1351L66.2105 51.532L47.391 49.3179L45.0392 51.6715L59.2501 58.4943L53.2025 64.5419L46.6287 63.2257Z" fill="#24BAEC"/>
<path d="M141 52.2563C156.267 79.286 217.733 108.113 257.994 108.136C301.52 108.294 324.759 97.7169 368.886 57.1072C369.011 61.7594 368.813 65.5329 369.072 68.9934C369.245 72.9362 369.457 77.106 370.292 80.9339C370.488 82.0682 372.333 83.8513 373.366 83.9058C374.399 83.9602 375.779 82.0847 375.914 80.8929C377.004 69.4862 377.764 58.137 378.65 46.5321C378.848 42.7586 377.382 40.2087 374.37 39.563C362.976 37.8013 351.543 35.8127 340.023 34.3066C337.421 34.0571 334.598 35.4819 331.286 36.0567C335.629 45.3519 341.393 43.183 346.132 44.9312C351.075 46.8776 356.153 47.6322 362.422 49.3486C350.882 64.4384 338.351 74.7927 324.479 82.3416C273.724 110.314 221.369 103.509 168.334 70.1809C161.427 65.7709 154.86 60.3671 148.08 55.7015C146.062 54.8833 144.209 54.0364 141 52.2563Z" fill="#24BAEC"/>
</svg>
