<svg width="38" height="38" viewBox="0 0 38 38" fill="none" xmlns="http://www.w3.org/2000/svg">
<path d="M19.0003 22.6667C19.3629 22.6667 19.7174 22.5591 20.0189 22.3577C20.3204 22.1562 20.5553 21.8699 20.6941 21.5349C20.8329 21.1999 20.8692 20.8313 20.7984 20.4757C20.7277 20.12 20.5531 19.7934 20.2967 19.537C20.0403 19.2806 19.7136 19.106 19.358 19.0352C19.0024 18.9645 18.6337 19.0008 18.2987 19.1395C17.9637 19.2783 17.6774 19.5133 17.476 19.8148C17.2745 20.1163 17.167 20.4707 17.167 20.8333C17.167 21.3196 17.3601 21.7859 17.704 22.1297C18.0478 22.4735 18.5141 22.6667 19.0003 22.6667ZM28.167 22.6667C28.5296 22.6667 28.884 22.5591 29.1855 22.3577C29.487 22.1562 29.722 21.8699 29.8608 21.5349C29.9995 21.1999 30.0358 20.8313 29.9651 20.4757C29.8944 20.12 29.7198 19.7934 29.4634 19.537C29.207 19.2806 28.8803 19.106 28.5247 19.0352C28.169 18.9645 27.8004 19.0008 27.4654 19.1395C27.1304 19.2783 26.8441 19.5133 26.6426 19.8148C26.4412 20.1163 26.3337 20.4707 26.3337 20.8333C26.3337 21.3196 26.5268 21.7859 26.8706 22.1297C27.2144 22.4735 27.6808 22.6667 28.167 22.6667ZM19.0003 30C19.3629 30 19.7174 29.8925 20.0189 29.691C20.3204 29.4896 20.5553 29.2032 20.6941 28.8682C20.8329 28.5332 20.8692 28.1646 20.7984 27.809C20.7277 27.4534 20.5531 27.1267 20.2967 26.8703C20.0403 26.6139 19.7136 26.4393 19.358 26.3686C19.0024 26.2978 18.6337 26.3341 18.2987 26.4729C17.9637 26.6116 17.6774 26.8466 17.476 27.1481C17.2745 27.4496 17.167 27.8041 17.167 28.1667C17.167 28.6529 17.3601 29.1192 17.704 29.463C18.0478 29.8068 18.5141 30 19.0003 30ZM28.167 30C28.5296 30 28.884 29.8925 29.1855 29.691C29.487 29.4896 29.722 29.2032 29.8608 28.8682C29.9995 28.5332 30.0358 28.1646 29.9651 27.809C29.8944 27.4534 29.7198 27.1267 29.4634 26.8703C29.207 26.6139 28.8803 26.4393 28.5247 26.3686C28.169 26.2978 27.8004 26.3341 27.4654 26.4729C27.1304 26.6116 26.8441 26.8466 26.6426 27.1481C26.4412 27.4496 26.3337 27.8041 26.3337 28.1667C26.3337 28.6529 26.5268 29.1192 26.8706 29.463C27.2144 29.8068 27.6808 30 28.167 30ZM9.83366 22.6667C10.1963 22.6667 10.5507 22.5591 10.8522 22.3577C11.1537 22.1562 11.3887 21.8699 11.5274 21.5349C11.6662 21.1999 11.7025 20.8313 11.6318 20.4757C11.561 20.12 11.3864 19.7934 11.13 19.537C10.8736 19.2806 10.547 19.106 10.1913 19.0352C9.83569 18.9645 9.46707 19.0008 9.13207 19.1395C8.79708 19.2783 8.51075 19.5133 8.3093 19.8148C8.10785 20.1163 8.00033 20.4707 8.00033 20.8333C8.00033 21.3196 8.19348 21.7859 8.5373 22.1297C8.88111 22.4735 9.34743 22.6667 9.83366 22.6667ZM31.8337 4.33332H30.0003V2.49999C30.0003 2.01376 29.8072 1.54744 29.4634 1.20363C29.1195 0.859811 28.6532 0.666656 28.167 0.666656C27.6808 0.666656 27.2144 0.859811 26.8706 1.20363C26.5268 1.54744 26.3337 2.01376 26.3337 2.49999V4.33332H11.667V2.49999C11.667 2.01376 11.4738 1.54744 11.13 1.20363C10.7862 0.859811 10.3199 0.666656 9.83366 0.666656C9.34743 0.666656 8.88111 0.859811 8.5373 1.20363C8.19348 1.54744 8.00033 2.01376 8.00033 2.49999V4.33332H6.16699C4.7083 4.33332 3.30936 4.91279 2.27791 5.94424C1.24645 6.97569 0.666992 8.37463 0.666992 9.83332V31.8333C0.666992 33.292 1.24645 34.691 2.27791 35.7224C3.30936 36.7539 4.7083 37.3333 6.16699 37.3333H31.8337C33.2924 37.3333 34.6913 36.7539 35.7227 35.7224C36.7542 34.691 37.3337 33.292 37.3337 31.8333V9.83332C37.3337 8.37463 36.7542 6.97569 35.7227 5.94424C34.6913 4.91279 33.2924 4.33332 31.8337 4.33332ZM33.667 31.8333C33.667 32.3196 33.4738 32.7859 33.13 33.1297C32.7862 33.4735 32.3199 33.6667 31.8337 33.6667H6.16699C5.68076 33.6667 5.21445 33.4735 4.87063 33.1297C4.52681 32.7859 4.33366 32.3196 4.33366 31.8333V15.3333H33.667V31.8333ZM33.667 11.6667H4.33366V9.83332C4.33366 9.34709 4.52681 8.88078 4.87063 8.53696C5.21445 8.19314 5.68076 7.99999 6.16699 7.99999H31.8337C32.3199 7.99999 32.7862 8.19314 33.13 8.53696C33.4738 8.88078 33.667 9.34709 33.667 9.83332V11.6667ZM9.83366 30C10.1963 30 10.5507 29.8925 10.8522 29.691C11.1537 29.4896 11.3887 29.2032 11.5274 28.8682C11.6662 28.5332 11.7025 28.1646 11.6318 27.809C11.561 27.4534 11.3864 27.1267 11.13 26.8703C10.8736 26.6139 10.547 26.4393 10.1913 26.3686C9.83569 26.2978 9.46707 26.3341 9.13207 26.4729C8.79708 26.6116 8.51075 26.8466 8.3093 27.1481C8.10785 27.4496 8.00033 27.8041 8.00033 28.1667C8.00033 28.6529 8.19348 29.1192 8.5373 29.463C8.88111 29.8068 9.34743 30 9.83366 30Z" fill="black"/>
</svg>
