<svg width="39" height="36" viewBox="0 0 39 36" fill="none" xmlns="http://www.w3.org/2000/svg">
<path d="M19.5 0.5C29.8556 0.5 38.25 8.33475 38.25 18C38.25 27.6652 29.8556 35.5 19.5 35.5C9.14438 35.5 0.75 27.6652 0.75 18C0.75 8.33475 9.14438 0.5 19.5 0.5ZM19.5 4C15.5218 4 11.7064 5.475 8.8934 8.10051C6.08035 10.726 4.5 14.287 4.5 18C4.5 21.713 6.08035 25.274 8.8934 27.8995C11.7064 30.525 15.5218 32 19.5 32C23.4782 32 27.2936 30.525 30.1066 27.8995C32.9196 25.274 34.5 21.713 34.5 18C34.5 14.287 32.9196 10.726 30.1066 8.10051C27.2936 5.475 23.4782 4 19.5 4ZM19.5 7.5C19.9592 7.50006 20.4025 7.65742 20.7457 7.94225C21.0889 8.22708 21.3081 8.61956 21.3619 9.04525L21.375 9.25V17.2755L26.4506 22.0128C26.7869 22.3277 26.9821 22.7503 26.9967 23.1947C27.0112 23.6391 26.844 24.072 26.5289 24.4055C26.2138 24.739 25.7746 24.948 25.3004 24.9902C24.8261 25.0324 24.3525 24.9045 23.9756 24.6325L23.7994 24.4872L18.1744 19.2372C17.883 18.965 17.6958 18.6108 17.6419 18.2292L17.625 18V9.25C17.625 8.78587 17.8225 8.34075 18.1742 8.01256C18.5258 7.68437 19.0027 7.5 19.5 7.5Z" fill="black"/>
</svg>
