<svg width="61" height="58" viewBox="0 0 61 58" fill="none" xmlns="http://www.w3.org/2000/svg">
<path d="M48.7661 16.6392C51.3182 19.2137 52.6885 22.1011 52.6885 26.7817C52.6885 35.0181 46.6005 42.4003 37.7472 46.0502L35.5345 42.8074C43.798 38.5621 45.4136 33.0531 46.0578 29.5797C44.7272 30.234 42.9853 30.4622 41.2781 30.3116C36.8081 29.9186 33.2846 26.4334 33.2846 22.1011C33.2846 19.9167 34.1983 17.8217 35.8247 16.2771C37.4511 14.7325 39.6569 13.8647 41.957 13.8647C43.229 13.8753 44.486 14.126 45.655 14.6023C46.824 15.0786 47.8815 15.771 48.7661 16.6392ZM23.9878 16.6392C26.54 19.2137 27.9102 22.1011 27.9102 26.7817C27.9102 35.0181 21.8222 42.4003 12.9689 46.0502L10.7562 42.8074C19.0198 38.5621 20.6353 33.0532 21.2796 29.5797C19.949 30.234 18.2071 30.4622 16.4998 30.3116C12.0298 29.9186 8.50637 26.4334 8.50637 22.1011C8.50637 19.9167 9.42006 17.8217 11.0464 16.2771C12.6728 14.7325 14.8787 13.8647 17.1788 13.8647C18.4507 13.8753 19.7078 14.126 20.8768 14.6023C22.0457 15.0787 23.1033 15.771 23.9878 16.6392Z" fill="black"/>
</svg>
