<svg width="45" height="48" viewBox="0 0 45 48" fill="none" xmlns="http://www.w3.org/2000/svg">
<path d="M7.36828 7.86798L36.8409 39.34M25.7887 28.0024C24.811 28.9368 23.5199 29.505 22.1046 29.505C19.0526 29.505 16.5785 26.863 16.5785 23.604C16.5785 22.0926 17.1106 20.714 17.9856 19.67M36.1184 30.7004C37.1709 29.7219 38.1124 28.7377 38.923 27.827C41.059 25.4271 41.059 21.7809 38.923 19.381C35.3203 15.3334 29.1329 9.83498 22.1046 9.83498C20.4627 9.83498 18.8666 10.1351 17.3387 10.6466M11.9734 13.3822C9.28665 15.2136 6.99552 17.4606 5.28624 19.381C3.15019 21.7809 3.15019 25.4271 5.28624 27.827C8.88887 31.8746 15.0763 37.373 22.1046 37.373C25.5457 37.373 28.7852 36.055 31.6184 34.2345" stroke="#7D848D" stroke-width="1.5" stroke-linecap="round"/>
</svg>
