<svg width="46" height="43" viewBox="0 0 46 43" fill="none" xmlns="http://www.w3.org/2000/svg">
<path d="M23.225 36.5104L23 36.7396L22.7525 36.5104C12.065 26.6333 5 20.1021 5 13.4792C5 8.89583 8.375 5.45833 12.875 5.45833C16.34 5.45833 19.715 7.75 20.9075 10.8667H25.0925C26.285 7.75 29.66 5.45833 33.125 5.45833C37.625 5.45833 41 8.89583 41 13.4792C41 20.1021 33.935 26.6333 23.225 36.5104ZM33.125 0.875C29.21 0.875 25.4525 2.73125 23 5.64167C20.5475 2.73125 16.79 0.875 12.875 0.875C5.945 0.875 0.5 6.39792 0.5 13.4792C0.5 22.1188 8.15 29.2 19.7375 39.9021L23 42.9271L26.2625 39.9021C37.85 29.2 45.5 22.1188 45.5 13.4792C45.5 6.39792 40.055 0.875 33.125 0.875Z" fill="white"/>
</svg>
