<svg width="109" height="109" viewBox="0 0 109 109" fill="none" xmlns="http://www.w3.org/2000/svg">
<g clip-path="url(#clip0_141_2448)">
<path fill-rule="evenodd" clip-rule="evenodd" d="M43.556 19.827C48.8723 23.3433 52.7522 28.681 54.4816 34.8575C56.211 41.034 55.6736 47.6337 52.9681 53.4417C57.7986 57.1988 63.6787 59.3222 69.7724 59.5101C75.8662 59.6981 81.8635 57.941 86.9119 54.4886C91.9604 51.0362 95.803 46.0643 97.8936 40.2795C99.9842 34.4947 100.216 28.1914 98.5573 22.2657C96.8981 16.34 93.4319 11.0933 88.6514 7.27146C83.871 3.44964 78.0195 1.24716 71.9288 0.9771C65.8381 0.707039 59.8181 2.38314 54.7245 5.76714C49.6309 9.15115 45.7229 14.0709 43.556 19.827ZM70.6694 27.5281C73.1369 27.5281 75.1395 29.5509 75.1395 32.0433V45.0037C75.1395 46.2012 74.6685 47.3497 73.8302 48.1965C72.9919 49.0432 71.855 49.5189 70.6694 49.5189C69.4839 49.5189 68.3469 49.0432 67.5087 48.1965C66.6704 47.3497 66.1994 46.2012 66.1994 45.0037V32.0433C66.1994 29.5509 68.202 27.5281 70.6694 27.5281ZM65.427 16.1136C65.427 19.5163 68.2163 21.0117 70.1831 21.2285L70.6837 21.2574C72.6363 21.2574 75.9333 19.8125 75.9333 16.1136C75.9333 12.7038 73.1441 11.2083 71.1772 10.9916L70.6766 10.9627C68.7241 10.9627 65.427 12.4076 65.427 16.1136ZM29.0731 59.7341C31.3941 59.7816 33.7011 59.3608 35.859 58.4965C38.017 57.6321 39.9825 56.3416 41.6406 54.7003C43.2986 53.0591 44.6158 51.1002 45.515 48.9384C46.4142 46.7766 46.8774 44.4553 46.8774 42.1104C46.8774 39.7655 46.4142 37.4442 45.515 35.2824C44.6158 33.1205 43.2986 31.1617 41.6406 29.5204C39.9825 27.8792 38.017 26.5886 35.859 25.7243C33.7011 24.8599 31.3941 24.4392 29.0731 24.4866C24.5069 24.58 20.159 26.4778 16.9624 29.7728C13.7658 33.0677 11.9754 37.4971 11.9754 42.1104C11.9754 46.7237 13.7658 51.1531 16.9624 54.448C20.159 57.7429 24.5069 59.6407 29.0731 59.7341ZM3.84258e-05 94.9744C-0.0118247 87.5998 2.72358 80.4907 7.66263 75.0598C12.6017 69.6288 19.3828 66.2738 26.6584 65.6613C33.934 65.0488 41.1714 67.2237 46.9323 71.7538C52.6933 76.2839 56.556 82.8376 57.7528 90.1124H94.636C96.0586 90.1124 97.423 90.6833 98.4289 91.6994C99.4349 92.7155 100 94.0937 100 95.5307C100 96.9677 99.4349 98.3458 98.4289 99.3619C97.423 100.378 96.0586 100.949 94.636 100.949H5.50712C4.14911 100.949 2.84177 100.428 1.84891 99.4921C0.856036 98.5562 0.251539 97.2748 0.157384 95.9063C0.0570746 95.6061 0.0063331 95.2913 0.00719048 94.9744H3.84258e-05Z" fill="#24BAEC"/>
</g>
<defs>
<clipPath id="clip0_141_2448">
<rect width="109" height="109" fill="white"/>
</clipPath>
</defs>
</svg>
