<svg width="32" height="36" viewBox="0 0 32 36" fill="none" xmlns="http://www.w3.org/2000/svg">
<g clip-path="url(#clip0_188_266)">
<path d="M31.9422 35.3602V35.3587H31.9502V22.6592C31.9502 16.4464 30.7161 11.6606 24.0144 11.6606C20.7928 11.6606 18.6308 13.5767 17.7481 15.3932H17.655V12.2407H11.3008V35.3587H17.9172V23.9115C17.9172 20.8975 18.4444 17.983 21.8884 17.983C25.2818 17.983 25.3324 21.4227 25.3324 24.1048V35.3602H31.9422Z" fill="#24BAEC"/>
<path d="M0.527344 12.2422H7.15177V35.3603H0.527344V12.2422Z" fill="#24BAEC"/>
<path d="M3.83673 0.731445C1.71868 0.731445 0 2.59411 0 4.88961C0 7.18512 1.71868 9.08674 3.83673 9.08674C5.95479 9.08674 7.67346 7.18512 7.67346 4.88961C7.67213 2.59411 5.95346 0.731445 3.83673 0.731445V0.731445Z" fill="#24BAEC"/>
</g>
<defs>
<clipPath id="clip0_188_266">
<rect width="31.9506" height="34.6273" fill="white" transform="translate(0 0.731445)"/>
</clipPath>
</defs>
</svg>
