<svg width="30" height="37" viewBox="0 0 30 37" fill="none" xmlns="http://www.w3.org/2000/svg">
<path fill-rule="evenodd" clip-rule="evenodd" d="M6.6875 15.5C6.6875 13.2954 7.56328 11.1811 9.12218 9.62218C10.6811 8.06328 12.7954 7.1875 15 7.1875C17.2046 7.1875 19.3189 8.06328 20.8778 9.62218C22.4367 11.1811 23.3125 13.2954 23.3125 15.5C23.3125 17.7046 22.4367 19.8189 20.8778 21.3778C19.3189 22.9367 17.2046 23.8125 15 23.8125C12.7954 23.8125 10.6811 22.9367 9.12218 21.3778C7.56328 19.8189 6.6875 17.7046 6.6875 15.5ZM15 9.8125C13.4916 9.8125 12.0449 10.4117 10.9783 11.4783C9.91172 12.5449 9.3125 13.9916 9.3125 15.5C9.3125 17.0084 9.91172 18.4551 10.9783 19.5217C12.0449 20.5883 13.4916 21.1875 15 21.1875C16.5084 21.1875 17.9551 20.5883 19.0217 19.5217C20.0883 18.4551 20.6875 17.0084 20.6875 15.5C20.6875 13.9916 20.0883 12.5449 19.0217 11.4783C17.9551 10.4117 16.5084 9.8125 15 9.8125Z" fill="black"/>
<path fill-rule="evenodd" clip-rule="evenodd" d="M0.167327 13.4998C0.467235 9.87195 2.12 6.48947 4.79765 4.0235C7.47531 1.55753 10.9822 0.188298 14.6223 0.1875H15.3783C19.0185 0.188298 22.5253 1.55753 25.203 4.0235C27.8807 6.48947 29.5334 9.87195 29.8333 13.4998C30.1669 17.5411 28.9184 21.5541 26.3508 24.6927L17.9631 34.9495C17.6041 35.3885 17.1521 35.7422 16.6397 35.9851C16.1273 36.2279 15.5674 36.354 15.0003 36.354C14.4333 36.354 13.8733 36.2279 13.3609 35.9851C12.8486 35.7422 12.3965 35.3885 12.0376 34.9495L3.64983 24.6927C1.08229 21.5541 -0.16628 17.5411 0.167327 13.4998ZM14.6223 2.8125C11.6414 2.81376 8.76984 3.93538 6.57724 5.95488C4.38464 7.97439 3.03118 10.7442 2.78533 13.715C2.50757 17.0783 3.54658 20.4181 5.68333 23.0302L14.0711 33.2887C14.1838 33.4268 14.3259 33.538 14.4869 33.6143C14.6479 33.6907 14.8239 33.7303 15.0021 33.7303C15.1803 33.7303 15.3563 33.6907 15.5173 33.6143C15.6783 33.538 15.8203 33.4268 15.9331 33.2887L24.3208 23.0302C26.4563 20.4176 27.4941 17.0778 27.2153 13.715C26.9694 10.7439 25.6157 7.97384 23.4228 5.95429C21.2298 3.93475 18.3578 2.81332 15.3766 2.8125H14.6223Z" fill="black"/>
</svg>
