<svg width="92" height="95" viewBox="0 0 92 95" fill="none" xmlns="http://www.w3.org/2000/svg">
<path d="M66.3793 42.2709C74.7075 42.2709 81.4589 35.245 81.4589 26.5781C81.4589 17.9112 74.7075 10.8853 66.3793 10.8853C58.0511 10.8853 51.2998 17.9112 51.2998 26.5781C51.2998 35.245 58.0511 42.2709 66.3793 42.2709Z" stroke="black" stroke-linecap="round" stroke-linejoin="round"/>
<path d="M11.0918 42.2688V18.7346C11.0918 14.8059 14.6121 10.8892 18.6325 10.8892C22.6625 10.8892 26.1732 14.804 26.1732 18.7346V42.2688" stroke="black" stroke-linecap="round" stroke-linejoin="round"/>
<path d="M26.1713 18.7326C26.1713 14.804 29.6897 10.8872 33.7101 10.8872C37.7401 10.8872 41.2509 14.802 41.2509 18.7326V42.2669M11.0918 84.1144V60.5781C11.0918 56.6495 14.6102 52.7307 18.6306 52.7307C22.6606 52.7307 26.1713 56.6475 26.1713 60.5781M26.1713 60.5781V84.1144M26.1713 60.5781C26.1713 56.6495 29.6897 52.7307 33.7101 52.7307C37.7401 52.7307 41.2509 56.6475 41.2509 60.5781V84.1144" stroke="black" stroke-linecap="round" stroke-linejoin="round"/>
<path d="M66.3793 84.1146C74.7075 84.1146 81.4589 77.0887 81.4589 68.4218C81.4589 59.7549 74.7075 52.729 66.3793 52.729C58.0511 52.729 51.2998 59.7549 51.2998 68.4218C51.2998 77.0887 58.0511 84.1146 66.3793 84.1146Z" stroke="black" stroke-linecap="round" stroke-linejoin="round"/>
</svg>
