<svg width="94" height="97" viewBox="0 0 94 97" fill="none" xmlns="http://www.w3.org/2000/svg">
<path d="M38.7708 52.5012C39.1591 52.5012 48.1694 52.9054 53.5289 51.5312H53.5677C59.7428 49.955 68.3259 45.4283 70.5396 30.6358C70.5396 30.6358 75.4719 12.125 51.0045 12.125H29.9936C28.0906 12.125 26.4594 13.58 26.1487 15.52L17.2161 74.3667C17.022 75.5792 17.954 76.7108 19.1192 76.7108H32.4403L35.7026 55.2092C35.9357 53.6733 37.2173 52.5012 38.7708 52.5012Z" fill="black"/>
<path d="M73.9565 33.5054C70.8107 48.5808 60.9072 56.5429 45.1393 56.5429H39.4302L35.43 82.8945C35.2747 83.9454 36.0514 84.875 37.0612 84.875H44.4402C45.7607 84.875 46.9258 83.8645 47.12 82.4904C47.4307 80.8737 49.1395 69.072 49.4891 67.0512C49.6832 65.677 50.8484 64.6666 52.1688 64.6666H53.8777C64.8297 64.6666 73.4128 60.0187 75.9372 46.6408C76.9469 41.225 76.4032 36.7791 73.9565 33.5054Z" fill="black"/>
</svg>
