<svg width="93" height="86" viewBox="0 0 93 86" fill="none" xmlns="http://www.w3.org/2000/svg">
<path d="M17.5901 61.708C13.6415 57.8697 11.5215 53.5648 11.5215 46.5864C11.5215 34.3067 20.9407 23.3006 34.6382 17.8589L38.0616 22.6936C25.2765 29.023 22.777 37.2363 21.7802 42.4149C23.8389 41.4395 26.5339 41.0992 29.1753 41.3237C36.0911 41.9096 41.5425 47.1057 41.5425 53.5648C41.5425 56.8216 40.1289 59.945 37.6126 62.2479C35.0963 64.5508 31.6835 65.8445 28.1249 65.8445C26.1569 65.8288 24.212 65.455 22.4034 64.7448C20.5948 64.0347 18.9587 63.0024 17.5901 61.708ZM55.9263 61.708C51.9776 57.8697 49.8577 53.5648 49.8577 46.5864C49.8577 34.3067 59.2769 23.3006 72.9744 17.8589L76.3978 22.6936C63.6127 29.023 61.1132 37.2363 60.1164 42.4149C62.1751 41.4395 64.8701 41.0992 67.5115 41.3237C74.4273 41.9096 79.8787 47.1057 79.8787 53.5648C79.8787 56.8216 78.4651 59.945 75.9488 62.2479C73.4325 64.5508 70.0196 65.8445 66.4611 65.8445C64.4931 65.8288 62.5482 65.455 60.7396 64.7448C58.931 64.0347 57.2948 63.0024 55.9263 61.708Z" fill="black" fill-opacity="0.19"/>
</svg>
