<svg width="141" height="134" viewBox="0 0 141 134" fill="none" xmlns="http://www.w3.org/2000/svg">
<g filter="url(#filter0_d_2_686)">
<g filter="url(#filter1_d_2_686)">
<path d="M105.079 47.0975C105.079 64.6784 89.5059 78.9306 70.2958 78.9306C51.0856 78.9306 35.5127 64.6784 35.5127 47.0975C35.5127 29.5166 51.0856 15.2644 70.2958 15.2644C89.5059 15.2644 105.079 29.5166 105.079 47.0975Z" fill="#737373"/>
</g>
<path d="M81.6358 41.9973C81.893 41.7619 82.3101 41.7619 82.5673 41.9973L87.0137 46.0666C87.2709 46.302 87.2709 46.6837 87.0137 46.9191C86.7564 47.1545 86.3394 47.1545 86.0821 46.9191L81.6358 42.8499C81.3785 42.6144 81.3785 42.2327 81.6358 41.9973Z" fill="white"/>
<path d="M81.6643 51.1269C81.4544 50.9347 81.4544 50.6232 81.6643 50.431L86.3264 46.1643C86.5364 45.9722 86.8768 45.9722 87.0867 46.1643C87.2967 46.3565 87.2967 46.668 87.0867 46.8602L82.4247 51.1269C82.2147 51.319 81.8743 51.319 81.6643 51.1269Z" fill="white"/>
<path d="M56.8311 46.583C56.8311 46.2995 57.0822 46.0696 57.3921 46.0696H86.565C86.8748 46.0696 87.126 46.2995 87.126 46.583C87.126 46.8666 86.8748 47.0965 86.565 47.0965H57.3921C57.0822 47.0965 56.8311 46.8666 56.8311 46.583Z" fill="white"/>
</g>
<defs>
<filter id="filter0_d_2_686" x="31.5127" y="15.2644" width="77.5664" height="71.6663" filterUnits="userSpaceOnUse" color-interpolation-filters="sRGB">
<feFlood flood-opacity="0" result="BackgroundImageFix"/>
<feColorMatrix in="SourceAlpha" type="matrix" values="0 0 0 0 0 0 0 0 0 0 0 0 0 0 0 0 0 0 127 0" result="hardAlpha"/>
<feOffset dy="4"/>
<feGaussianBlur stdDeviation="2"/>
<feComposite in2="hardAlpha" operator="out"/>
<feColorMatrix type="matrix" values="0 0 0 0 0 0 0 0 0 0 0 0 0 0 0 0 0 0 0.25 0"/>
<feBlend mode="normal" in2="BackgroundImageFix" result="effect1_dropShadow_2_686"/>
<feBlend mode="normal" in="SourceGraphic" in2="effect1_dropShadow_2_686" result="shape"/>
</filter>
<filter id="filter1_d_2_686" x="0.512695" y="0.264404" width="139.566" height="133.666" filterUnits="userSpaceOnUse" color-interpolation-filters="sRGB">
<feFlood flood-opacity="0" result="BackgroundImageFix"/>
<feColorMatrix in="SourceAlpha" type="matrix" values="0 0 0 0 0 0 0 0 0 0 0 0 0 0 0 0 0 0 127 0" result="hardAlpha"/>
<feOffset dy="20"/>
<feGaussianBlur stdDeviation="17.5"/>
<feColorMatrix type="matrix" values="0 0 0 0 0.45098 0 0 0 0 0.45098 0 0 0 0 0.45098 0 0 0 0.15 0"/>
<feBlend mode="normal" in2="BackgroundImageFix" result="effect1_dropShadow_2_686"/>
<feBlend mode="normal" in="SourceGraphic" in2="effect1_dropShadow_2_686" result="shape"/>
</filter>
</defs>
</svg>
