<svg width="84" height="17" viewBox="0 0 84 17" fill="none" xmlns="http://www.w3.org/2000/svg">
<path fill-rule="evenodd" clip-rule="evenodd" d="M41.514 5.8694L37.8834 13.1305C36.1508 16.5956 31.2059 16.5956 29.4734 13.1305L25.8428 5.8694L22.2123 13.1305C20.4797 16.5956 15.5348 16.5956 13.8022 13.1305L10.1717 5.8694L4.67223 16.8683L0 14.5322L5.96668 2.59884C7.69924 -0.866284 12.6441 -0.866273 14.3767 2.59884L18.0072 9.85996L21.6378 2.59884C23.3704 -0.866287 28.3153 -0.86627 30.0478 2.59884L33.6784 9.85996L37.3089 2.59884C39.0415 -0.866291 43.9864 -0.866267 45.719 2.59884L49.3495 9.85996L52.9801 2.59884C54.7126 -0.866291 59.6575 -0.866267 61.3901 2.59884L65.0207 9.85996L68.6512 2.59883C70.3838 -0.866284 75.3287 -0.866272 77.0612 2.59884L83.0279 14.5322L78.3557 16.8683L72.8562 5.86939L69.2257 13.1305C67.4931 16.5956 62.5482 16.5956 60.8157 13.1305L57.1851 5.8694L53.5545 13.1305C51.822 16.5956 46.8771 16.5956 45.1445 13.1305L41.514 5.8694Z" fill="#24BAEC"/>
</svg>
