<svg width="33" height="26" viewBox="0 0 33 26" fill="none" xmlns="http://www.w3.org/2000/svg">
<path fill-rule="evenodd" clip-rule="evenodd" d="M4.54167 2.33334C3.89287 2.33334 3.27547 2.58502 2.82404 3.02544C2.37346 3.46503 2.125 4.05592 2.125 4.66668V8.7792C2.91691 8.95981 3.65106 9.35334 4.23927 9.92721C5.07019 10.7379 5.54167 11.8427 5.54167 13C5.54167 14.1574 5.07019 15.2622 4.23927 16.0728C3.65106 16.6467 2.91691 17.0402 2.125 17.2208V21.3333C2.125 21.9441 2.37346 22.535 2.82404 22.9746C3.27547 23.415 3.89287 23.6667 4.54167 23.6667H20.625V21.3333C20.625 20.7811 21.0727 20.3333 21.625 20.3333C22.1773 20.3333 22.625 20.7811 22.625 21.3333V23.6667H28.4583C29.1071 23.6667 29.7245 23.415 30.176 22.9746C30.6265 22.535 30.875 21.9441 30.875 21.3333V17.2208C30.0831 17.0402 29.3489 16.6467 28.7607 16.0728C27.9298 15.2622 27.4583 14.1574 27.4583 13C27.4583 11.8427 27.9298 10.7379 28.7607 9.92721C29.3489 9.35334 30.0831 8.95981 30.875 8.7792V4.66668C30.875 4.05592 30.6265 3.46503 30.176 3.02544C29.7245 2.58502 29.1071 2.33334 28.4583 2.33334H22.625V4.66668C22.625 5.21896 22.1773 5.66668 21.625 5.66668C21.0727 5.66668 20.625 5.21896 20.625 4.66668V2.33334H4.54167ZM4.54167 0.333344C3.37815 0.333344 2.25747 0.784042 1.42739 1.59387C0.59648 2.40452 0.125 3.50933 0.125 4.66668V9.66668C0.125 10.219 0.572715 10.6667 1.125 10.6667C1.7738 10.6667 2.3912 10.9184 2.84262 11.3588C3.29321 11.7984 3.54167 12.3893 3.54167 13C3.54167 13.6108 3.29321 14.2017 2.84262 14.6413C2.3912 15.0817 1.7738 15.3333 1.125 15.3333C0.572715 15.3333 0.125 15.7811 0.125 16.3333V21.3333C0.125 22.4907 0.596481 23.5955 1.42739 24.4061C2.25747 25.216 3.37815 25.6667 4.54167 25.6667H28.4583C29.6218 25.6667 30.7425 25.216 31.5726 24.4061C32.4035 23.5955 32.875 22.4907 32.875 21.3333V16.3333C32.875 15.7811 32.4273 15.3333 31.875 15.3333C31.2262 15.3333 30.6088 15.0817 30.1574 14.6413C29.7068 14.2017 29.4583 13.6108 29.4583 13C29.4583 12.3893 29.7068 11.7984 30.1574 11.3588C30.6088 10.9184 31.2262 10.6667 31.875 10.6667C32.4273 10.6667 32.875 10.219 32.875 9.66668V4.66668C32.875 3.50933 32.4035 2.40452 31.5726 1.59387C30.7425 0.784043 29.6218 0.333344 28.4583 0.333344H4.54167ZM21.625 10.3333C22.1773 10.3333 22.625 10.7811 22.625 11.3333V14.6667C22.625 15.219 22.1773 15.6667 21.625 15.6667C21.0727 15.6667 20.625 15.219 20.625 14.6667V11.3333C20.625 10.7811 21.0727 10.3333 21.625 10.3333Z" fill="black"/>
</svg>
