<svg width="33" height="36" viewBox="0 0 33 36" fill="none" xmlns="http://www.w3.org/2000/svg">
<g clip-path="url(#clip0_188_270)">
<path d="M29.6481 10.9939C30.9475 9.99404 32.0404 8.74601 32.9311 7.30898V7.30754C31.7422 7.87167 30.4775 8.2468 29.1569 8.4286C30.5148 7.54993 31.5519 6.16916 32.0391 4.50561C30.7731 5.32368 29.3752 5.9008 27.8855 6.22399C26.6834 4.83601 24.97 3.97754 23.1009 3.97754C19.4745 3.97754 16.555 7.16758 16.555 11.0776C16.555 11.6403 16.599 12.1813 16.7068 12.6964C11.2619 12.4079 6.44269 9.57996 3.20503 5.27029C2.64057 6.33364 2.30775 7.54993 2.30775 8.85855C2.30775 11.3171 3.47528 13.4957 5.21791 14.7582C4.16488 14.7365 3.13314 14.4047 2.25849 13.8838V13.9618C2.25849 17.4115 4.52831 20.2769 7.50638 20.9377C6.97253 21.0964 6.3921 21.1715 5.78903 21.1715C5.36968 21.1715 4.94633 21.1455 4.54961 21.0503C5.39764 23.8609 7.80724 25.9284 10.6695 25.9962C8.44093 27.8848 5.61064 29.0232 2.54738 29.0232C2.01088 29.0232 1.49567 28.9972 0.980469 28.9265C3.88265 30.9537 7.32 32.1123 11.0289 32.1123C22.5884 32.1123 30.1221 21.6606 29.6481 10.9939Z" fill="#24BAEC"/>
</g>
<defs>
<clipPath id="clip0_188_270">
<rect width="31.9506" height="34.6273" fill="white" transform="translate(0.980469 0.731445)"/>
</clipPath>
</defs>
</svg>
