<svg width="33" height="36" viewBox="0 0 33 36" fill="none" xmlns="http://www.w3.org/2000/svg">
<g clip-path="url(#clip0_188_272)">
<path d="M13.9382 25.1408C14.0234 25.0628 14.1099 24.982 14.1898 24.8969C9.74204 29.6264 2.48925 27.4189 0.789218 20.7489V20.7388C-1.49126 11.6635 8.12454 4.76978 14.1872 11.1181C14.3136 11.2638 22.6887 20.9436 22.1562 20.3276H22.1801C23.4302 21.7242 25.2381 21.5713 26.3137 20.3506C27.4706 19.0406 27.5119 16.9023 26.3763 15.5706C24.5831 13.3328 21.0619 15.005 21.3987 18.3221L19.3831 16.0972L17.0454 13.6748C17.5273 12.6374 18.1597 11.7299 18.9518 10.945C18.8666 11.0243 18.7801 11.1066 18.7002 11.1888C23.1653 6.44199 30.4127 8.70142 32.1008 15.3427V15.3513C34.3866 24.4251 24.7601 31.3189 18.7028 24.9705C18.579 24.8262 10.2093 15.0858 10.7392 15.7034L10.7338 15.6817C10.7125 15.6817 10.7125 15.6601 10.7125 15.6601C9.3999 14.1927 7.61999 14.4135 6.57893 15.6153C5.42072 16.9254 5.38078 19.0637 6.51902 20.3752C8.2337 22.561 11.8308 20.9407 11.4927 17.5574C11.6231 17.7031 16.1375 22.7255 15.8499 22.4066C15.1191 23.9865 14.3017 24.7122 13.9382 25.1408Z" fill="#24BAEC"/>
</g>
<defs>
<clipPath id="clip0_188_272">
<rect width="31.9506" height="34.6273" fill="white" transform="translate(0.469727 0.731445)"/>
</clipPath>
</defs>
</svg>
