<svg width="118" height="84" viewBox="0 0 118 84" fill="none" xmlns="http://www.w3.org/2000/svg">
<g filter="url(#filter0_d_188_194)">
<g clip-path="url(#clip0_188_194)">
<path d="M106.692 76H11.7532C9.81631 76 7.95877 75.1993 6.58919 73.774C5.21962 72.3487 4.4502 70.4156 4.4502 68.4L4.4502 7.6C4.4502 5.58436 5.21962 3.65127 6.58919 2.22599C7.95877 0.800712 9.81631 0 11.7532 0L106.692 0C108.629 0 110.486 0.800712 111.856 2.22599C113.226 3.65127 113.995 5.58436 113.995 7.6V68.4C113.995 70.4156 113.226 72.3487 111.856 73.774C110.486 75.1993 108.629 76 106.692 76ZM58.7358 46.7463L57.6433 53.8713C60.4341 55.098 63.4496 55.672 66.4769 55.5528H66.4434C69.9906 55.7674 73.5031 54.7261 76.409 52.5983L76.3573 52.6332C77.5427 51.7249 78.5067 50.5397 79.1716 49.1729C79.8364 47.8061 80.1836 46.2959 80.1852 44.764V44.7165C80.1852 41.2332 77.9457 38.342 73.5304 36.1063C72.3259 35.5006 71.1735 34.7887 70.0858 33.9783L70.1558 34.029C69.8514 33.8251 69.598 33.5487 69.4166 33.2227C69.2351 32.8968 69.1307 32.5306 69.1121 32.1543V32.148C69.1359 31.7561 69.2541 31.3767 69.4556 31.0447C69.6571 30.7128 69.9355 30.4388 70.2653 30.248L70.2775 30.2417C71.2987 29.6277 72.4725 29.3444 73.6491 29.4278H73.6308H73.8742L74.1085 29.4247C76.0682 29.4247 77.9274 29.8648 79.604 30.6533L79.5188 30.6185L80.2309 31.0143L81.3233 24.1395C79.1149 23.2452 76.7643 22.7918 74.3946 22.8032H74.2455H74.2546C70.8261 22.6477 67.4457 23.6862 64.6481 25.7545L64.6968 25.7197C63.5338 26.5733 62.5849 27.7052 61.9298 29.02C61.2748 30.3349 60.9328 31.7943 60.9327 33.2753V33.2912C60.9023 36.6415 63.221 39.5358 67.828 41.9045C69.0451 42.4587 70.0949 43.1363 71.0352 43.9502L71.0139 43.9312C71.2846 44.1693 71.5047 44.4635 71.6603 44.7949C71.8159 45.1264 71.9035 45.4879 71.9176 45.8565V45.8692C71.9176 46.8793 71.3395 47.747 70.5057 48.1365L70.4905 48.1428C69.5776 48.6432 68.4944 48.9345 67.3442 48.9345H67.2042H67.2103H66.982C64.3743 48.9345 61.9034 48.3328 59.6882 47.2562L59.7947 47.3037L58.751 46.759L58.7358 46.7463ZM89.5452 50.3595H99.6325C99.7948 51.0836 100.112 52.6669 100.585 55.1095H107.909L101.537 23.3447H95.4515C94.5812 23.2624 93.7086 23.4754 92.9643 23.9521C92.22 24.4287 91.644 25.1432 91.3223 25.9888L91.3132 26.0173L79.6284 55.1095H87.9051L89.5665 50.3627L89.5452 50.3595ZM49.7622 23.3447L44.8144 55.1095H52.7077L57.6525 23.3447H49.7622ZM19.4274 29.8268L25.848 55.0588H34.1673L46.5671 23.3447H38.2113L30.5006 45.0173L29.6912 40.6125L26.9404 26.0173C26.7943 25.1748 26.3387 24.4245 25.6701 23.9256C25.0016 23.4266 24.1726 23.2183 23.3589 23.3447L23.3771 23.3415H10.6364L10.5421 23.9843C20.3525 26.5778 26.7973 32.1733 29.7003 40.6093C28.8116 38.197 27.4356 36.0113 25.6654 34.2L25.6623 34.1968C23.9263 32.3414 21.8494 30.8682 19.5552 29.8648L19.4335 29.8173L19.4274 29.8268ZM98.3514 43.8267H91.7787C92.223 42.6064 93.2698 39.6509 94.919 34.96L95.059 34.5135L95.5459 33.2278C95.7426 32.7001 95.8846 32.2715 95.9719 31.9422L96.5439 34.6623L98.3484 43.814L98.3514 43.8267Z" fill="black"/>
</g>
<rect x="4.9502" y="0.5" width="108.545" height="75" stroke="black" shape-rendering="crispEdges"/>
</g>
<defs>
<filter id="filter0_d_188_194" x="0.450195" y="0" width="117.545" height="84" filterUnits="userSpaceOnUse" color-interpolation-filters="sRGB">
<feFlood flood-opacity="0" result="BackgroundImageFix"/>
<feColorMatrix in="SourceAlpha" type="matrix" values="0 0 0 0 0 0 0 0 0 0 0 0 0 0 0 0 0 0 127 0" result="hardAlpha"/>
<feOffset dy="4"/>
<feGaussianBlur stdDeviation="2"/>
<feComposite in2="hardAlpha" operator="out"/>
<feColorMatrix type="matrix" values="0 0 0 0 0 0 0 0 0 0 0 0 0 0 0 0 0 0 0.25 0"/>
<feBlend mode="normal" in2="BackgroundImageFix" result="effect1_dropShadow_188_194"/>
<feBlend mode="normal" in="SourceGraphic" in2="effect1_dropShadow_188_194" result="shape"/>
</filter>
<clipPath id="clip0_188_194">
<rect x="4.4502" width="109.545" height="76" fill="white"/>
</clipPath>
</defs>
</svg>
